<?xml version="1.0" encoding="UTF-8" standalone="no"?>
<!-- Created with Inkscape (http://www.inkscape.org/) -->

<svg
   width="17.1cm"
   height="14.8cm"
   viewBox="0 0 171.00001 148"
   version="1.1"
   id="svg48831"
   inkscape:version="1.1.2 (b8e25be833, 2022-02-05)"
   sodipodi:docname="logo.svg"
   xmlns:inkscape="http://www.inkscape.org/namespaces/inkscape"
   xmlns:sodipodi="http://sodipodi.sourceforge.net/DTD/sodipodi-0.dtd"
   xmlns="http://www.w3.org/2000/svg"
   xmlns:svg="http://www.w3.org/2000/svg">
  <sodipodi:namedview
     id="namedview48833"
     pagecolor="#ffffff"
     bordercolor="#999999"
     borderopacity="1"
     inkscape:pageshadow="0"
     inkscape:pageopacity="0"
     inkscape:pagecheckerboard="true"
     inkscape:document-units="mm"
     showgrid="false"
     height="36mm"
     inkscape:zoom="1.0998546"
     inkscape:cx="188.2067"
     inkscape:cy="300.03967"
     inkscape:window-width="2560"
     inkscape:window-height="1417"
     inkscape:window-x="-8"
     inkscape:window-y="-8"
     inkscape:window-maximized="1"
     inkscape:current-layer="layer1"
     units="cm"
     width="17.1cm" />
  <defs
     id="defs48828">
    <filter
       inkscape:collect="always"
       style="color-interpolation-filters:sRGB"
       id="filter1967"
       x="-0.018998624"
       y="-0.021914425"
       width="1.0379972"
       height="1.0438289">
      <feGaussianBlur
         inkscape:collect="always"
         stdDeviation="5.0992691"
         id="feGaussianBlur1969" />
    </filter>
  </defs>
  <g
     inkscape:label="Слой 1"
     inkscape:groupmode="layer"
     id="layer1">
    <g
       id="g65526"
       transform="matrix(11.25922,0,0,10.283613,-4.8009877,-3.7414255)">
      <text
         xml:space="preserve"
         style="font-size:19.7556px;line-height:1.25;font-family:'Ink Free';-inkscape-font-specification:'Ink Free';stroke-width:0.264583"
         x="-1.9774487"
         y="13.33183"
         id="text57246"><tspan
           sodipodi:role="line"
           id="tspan57244"
           style="font-size:19.7556px;stroke-width:0.264583"
           x="-1.9774487"
           y="13.33183">N</tspan></text>
      <text
         xml:space="preserve"
         style="font-size:19.7556px;line-height:1.25;font-family:'Ink Free';-inkscape-font-specification:'Ink Free';stroke-width:0.264583"
         x="5.5070872"
         y="14.118556"
         id="text62166"><tspan
           sodipodi:role="line"
           id="tspan62164"
           style="font-size:19.7556px;stroke-width:0.264583"
           x="5.5070872"
           y="14.118556">S</tspan></text>
    </g>
    <path
       style="fill:#62f9d5;stroke-width:0.909211;fill-opacity:1;filter:url(#filter1967)"
       d="m 397.77986,559.08184 c -46.83915,-2.78056 -77.27958,-9.76014 -87.98604,-20.17404 -4.50671,-4.38356 -5.61551,-8.50897 -3.86274,-14.37185 2.75113,-9.20232 15.09563,-27.99929 22.89869,-34.86781 l 4.07574,-3.58761 -12.22167,-13.00986 C 292.13014,442.67552 249.12732,393.5272 202.7006,338.22653 164.06934,292.21135 153.04116,278.25332 103.2072,212.30079 64.628732,161.24431 49.709781,142.27827 48.852114,143.20075 c -0.635525,0.68355 -2.38683,83.77492 -2.960731,140.47312 -0.570858,56.39744 -2.810957,169.60033 -3.697315,186.84288 -0.727933,14.16068 -2.186561,17.98924 -9.517817,24.98209 -6.304137,6.01312 -10.004856,7.75001 -16.508551,7.7481 -6.006076,-0.002 -10.5483892,-2.21684 -12.9019908,-6.29169 -3.31890145,-5.74611 -2.82369585,-30.11849 1.7379713,-85.53722 4.5447928,-55.21373 5.8527345,-84.48106 6.8058885,-152.29286 0.456876,-32.5043 1.263202,-70.96393 1.791836,-85.46585 0.528633,-14.50191 1.326029,-37.02255 1.771989,-50.04584 1.018969,-29.756699 1.731138,-31.878516 11.429244,-34.051908 11.440801,-2.563937 18.458665,2.289981 43.813508,30.303698 23.318836,25.76419 36.658334,41.57036 87.923294,104.18166 9.20377,11.24081 26.99239,32.18457 96.59247,113.725 46.57898,54.56988 84.50481,100.643 95.27242,115.73897 2.42404,3.39847 4.52241,6.05791 4.66302,5.90987 0.14062,-0.14803 -0.67558,-4.76975 -1.81377,-10.27048 -5.75236,-27.80018 -10.34959,-58.64674 -12.80522,-85.92045 -1.16149,-12.90016 -3.03231,-66.86804 -3.10695,-89.62662 l -0.0241,-7.34303 -9.31941,-3.89988 c -24.00861,-10.04685 -46.49733,-23.98729 -59.41803,-36.83238 -9.34363,-9.28895 -14.74544,-17.64562 -18.37796,-28.43092 -2.14583,-6.37117 -2.38317,-8.42324 -2.39539,-20.71005 -0.0107,-10.75033 0.34384,-14.79331 1.67435,-19.09344 7.78957,-25.17538 28.22987,-49.07981 63.46446,-74.220122 l 5.9016,-4.210867 0.58386,-7.571404 c 1.30862,-16.969855 10.63696,-25.661151 28.92623,-26.950819 9.12486,-0.64344 11.21387,-0.0157 14.01031,4.209993 l 2.32318,3.510571 11.74229,-5.313008 C 417.09519,28.349447 466.94743,12.925778 508.249,5.9655571 c 29.92096,-5.04233723 69.29386,-6.67120246 82.28361,-3.4040898 8.00159,2.0125194 12.71505,5.0462514 13.96416,8.9877787 2.84613,8.980893 3.79869,30.815319 1.53531,35.192212 -2.87057,5.551052 -9.19954,5.69609 -20.04553,0.459375 -11.70887,-5.653342 -19.57723,-7.102121 -38.64147,-7.11495 -18.1207,-0.01219 -26.46137,0.860188 -47.84431,5.004209 -24.81943,4.810017 -54.78945,13.913414 -83.9913,25.512368 -17.70149,7.031016 -44.17879,19.82043 -43.94701,21.227862 0.67869,4.121309 2.39091,66.233218 2.88165,104.533998 l 0.60546,47.2537 14.09278,4.39206 c 7.75102,2.41564 35.98203,10.68783 62.73556,18.38267 75.18001,21.62321 103.39436,31.99272 132.43186,48.67216 37.88566,21.76192 56.41847,45.1592 60.40737,76.26301 2.50011,19.4947 -3.37276,44.53116 -15.32315,65.32374 -18.2249,31.70968 -43.77374,54.97514 -80.98918,73.75094 -29.96707,15.11887 -54.58695,22.62249 -88.53075,26.98231 -10.65059,1.36799 -49.67185,2.43437 -62.09421,1.69693 z m 70.95968,-40.74517 c 22.29561,-3.30344 39.0138,-8.36628 57.23909,-17.33398 18.47963,-9.09284 30.07628,-17.21833 42.75486,-29.95731 15.42615,-15.49964 25.03832,-30.79337 29.60285,-47.1005 2.74037,-9.79018 2.96993,-25.64857 0.49061,-33.89331 -6.508,-21.64181 -24.17586,-38.80067 -56.5238,-54.89541 -22.33965,-11.11512 -47.05716,-19.9849 -95.42589,-34.2432 -21.47726,-6.33115 -66.84307,-20.34709 -70.91265,-21.90873 -1.59492,-0.61202 -1.63712,0.39225 -1.04004,24.74614 0.8429,34.38026 1.73675,47.08181 7.0011,99.48476 3.15618,31.41773 4.81733,52.82089 5.50194,70.89007 l 0.9807,25.88411 -2.37511,2.04299 c -3.16005,2.71816 -7.60849,3.81831 -19.74614,4.88343 l -10.12066,0.88812 -3.28737,-2.4875 c -1.80804,-1.36813 -5.22257,-4.28706 -7.58782,-6.48651 l -4.30046,-3.999 -0.96419,2.53601 c -1.52023,3.99853 -0.79304,5.208 5.02439,8.35661 12.00993,6.50024 35.86792,11.77307 62.74852,13.86798 14.08855,1.09797 49.99535,0.34687 60.94007,-1.27477 z M 333.72912,212.56258 c -2.46562,-30.28446 -9.05141,-89.47316 -10.08091,-90.6005 -0.89738,-0.98266 -15.2244,12.68037 -20.57274,19.61929 -2.20429,2.85984 -5.52064,8.38329 -7.36966,12.27435 -3.06054,6.44055 -3.39279,7.90611 -3.70699,16.35132 -0.27893,7.49727 0.0171,10.46932 1.54342,15.49435 3.33894,10.9927 11.37254,21.2917 23.18075,29.71754 7.00777,5.00044 17.29987,11.32036 17.75644,10.90345 0.18939,-0.17294 -0.14825,-6.36485 -0.75031,-13.7598 z"
       id="path946"
       transform="scale(0.26458333)" />
  </g>
</svg>
